<svg xmlns="http://www.w3.org/2000/svg" viewBox="0 0 48 48">
  <path fill="#EA4335" d="M24 9.5c3.54 0 6.73 1.22 9.24 3.6l6.88-6.88C35.9 2.2 30.3 0 24 0 14.82 0 6.74 5.48 2.69 13.44l7.98 6.19C12.42 13.36 17.73 9.5 24 9.5z"/>
  <path fill="#4285F4" d="M46.5 24c0-1.54-.14-3.02-.4-4.45H24v8.42h12.7c-.55 2.96-2.2 5.47-4.7 7.15l7.2 5.6C43.9 36.6 46.5 30.8 46.5 24z"/>
  <path fill="#FBBC05" d="M10.67 28.63a14.5 14.5 0 010-9.26l-7.98-6.19C.98 16.38 0 20.07 0 24s.98 7.62 2.69 10.82l7.98-6.19z"/>
  <path fill="#34A853" d="M24 48c6.3 0 11.9-2.08 15.87-5.65l-7.2-5.6c-2 1.35-4.55 2.15-8.67 2.15-6.27 0-11.58-3.86-13.33-9.13l-7.98 6.19C6.74 42.52 14.82 48 24 48z"/>
</svg>